<?xml version="1.0" encoding="utf-8"?>
<!-- Generator: Adobe Illustrator 25.1.0, SVG Export Plug-In . SVG Version: 6.00 Build 0)  -->
<svg version="1.1" id="Layer_1" xmlns="http://www.w3.org/2000/svg" xmlns:xlink="http://www.w3.org/1999/xlink" x="0px" y="0px"
	 viewBox="0 0 1010 770.6" style="enable-background:new 0 0 1010 770.6;" xml:space="preserve">
<style type="text/css">
	.st0{fill:#FF6584;}
	.st1{fill:#ABBDC7;}
	.st2{fill:#3F3D56;}
	.st3{fill:#E6E6E6;}
	.st4{fill:#CCCCCC;}
	.st5{fill:#E6973A;}
	.st6{font-family:'ISOCT_IV25';}
	.st7{font-size:85.841px;}
</style>
<ellipse class="st0" cx="276.6" cy="388.8" rx="40.5" ry="39"/>
<path class="st1" d="M359.6,608.8L359.6,608.8c-3,0-5.4-2.3-5.4-5.2V299.9c0-2.9,2.4-5.2,5.4-5.2h265.9c3,0,5.4,2.3,5.4,5.2v236.1
	c0,2.8-2.4,5.1-5.3,5.2L359.6,608.8z"/>
<path class="st2" d="M556.1,251.8H432.7V183c0-3,2.6-5.5,5.7-5.5h112.1c3.1,0,5.7,2.5,5.7,5.5V251.8z M433.9,250.6h120.9V183
	c0-2.4-2-4.3-4.4-4.3H438.4c-2.4,0-4.4,1.9-4.4,4.3V250.6z"/>
<path class="st3" d="M467.8,203.7H521c2.8,0,5.1,2.2,5.1,4.9v73l0,0h-63.3l0,0v-73C462.8,205.9,465,203.7,467.8,203.7L467.8,203.7z"
	/>
<path class="st2" d="M478.3,178.8h-26v-25c0-1.7,1.4-3,3.2-3h19.6c1.7,0,3.2,1.4,3.2,3V178.8z M453.6,177.6H477v-23.7
	c0-1-0.9-1.8-1.9-1.8h-19.6c-1,0-1.9,0.8-1.9,1.8V177.6z"/>
<path class="st2" d="M691.6,545.7c-0.3,0-0.5,0-0.8,0c-15.7-0.2-30.7-5.8-42.4-15.9c-0.4-0.4-0.9-0.8-1.3-1.1l-0.2-0.2V411.8
	l0.1-0.1c0.4-0.9,0.8-1.7,1.3-2.5c13.2-25.7,28.5-39.9,43.2-39.9c21.2,0,37.7,28,45.6,44.7c11,23.2,18.7,52,18.7,69.9
	c0,33.9-28.4,61.4-63.6,61.8C692.1,545.7,691.8,545.7,691.6,545.7z M648.3,527.9c0.4,0.3,0.7,0.6,1.1,0.9
	c11.4,9.9,26.2,15.4,41.5,15.6c0.3,0,0.5,0,0.7,0c0.2,0,0.5,0,0.7,0c34.4-0.4,62.4-27.5,62.4-60.6c0-17.8-7.6-46.4-18.6-69.4
	c-7.8-16.4-23.9-44-44.5-44c-14.2,0-29.2,13.9-42.1,39.2c-0.4,0.8-0.8,1.6-1.2,2.4V527.9z"/>
<path class="st4" d="M691.6,619.5c-0.4,0-0.7-0.3-0.7-0.7V475.8c0-0.4,0.3-0.7,0.7-0.7s0.7,0.3,0.7,0.7c0,0,0,0,0,0v142.9
	C692.3,619.2,692,619.5,691.6,619.5z"/>
<path class="st4" d="M313.6,619.5c-0.4,0-0.7-0.3-0.7-0.7V475.8c0-0.4,0.3-0.7,0.7-0.7s0.7,0.3,0.7,0.7c0,0,0,0,0,0v142.9
	C314.3,619.2,314,619.5,313.6,619.5z"/>
<path class="st4" d="M691.6,502.5c-0.2,0-0.4-0.1-0.6-0.2l-36.6-40.6c-0.3-0.3-0.2-0.7,0.1-1c0.3-0.3,0.8-0.2,1,0.1l36.6,40.6
	c0.3,0.3,0.2,0.7-0.1,1C691.9,502.5,691.7,502.5,691.6,502.5z"/>
<path class="st4" d="M691.6,526c-0.4,0-0.7-0.3-0.7-0.7c0-0.2,0.1-0.4,0.2-0.5l20.8-20c0.3-0.3,0.7-0.3,1,0c0.3,0.3,0.3,0.7,0,1
	l-20.8,20C691.9,525.9,691.8,526,691.6,526z"/>
<path class="st2" d="M759,619.8h-54.5v-0.6c0-14.5,12.2-26.2,27.2-26.2c15,0,27.2,11.7,27.2,26.2c0,0,0,0,0,0L759,619.8z
	 M705.8,618.6h51.9c-0.3-13.8-12.3-24.7-26.6-24.3C717.3,594.5,706.1,605.3,705.8,618.6L705.8,618.6z"/>
<path class="st2" d="M731.7,604.3c-0.4,0-0.7,0.3-0.7,0.7v7.3l-7.4-6.1c-0.3-0.2-0.8-0.2-1,0.1c-0.3,0.3-0.2,0.7,0.1,1c0,0,0,0,0,0
	l8.4,6.9v4.3c0,0.4,0.3,0.7,0.7,0.7c0.4,0,0.7-0.3,0.7-0.7c0,0,0,0,0,0V605C732.5,604.6,732.1,604.3,731.7,604.3z"/>
<path class="st2" d="M302.5,619.8H248v-0.6c0-14.5,12.2-26.2,27.2-26.2c15,0,27.2,11.7,27.2,26.2V619.8z M249.3,618.6h51.9
	c-0.3-13.8-12.3-24.7-26.6-24.3C260.8,594.5,249.6,605.3,249.3,618.6L249.3,618.6z"/>
<path class="st2" d="M275.3,604.3c-0.4,0-0.7,0.3-0.7,0.7v7.3l-7.4-6.1c-0.3-0.2-0.8-0.2-1,0.1s-0.2,0.7,0.1,1c0,0,0,0,0,0l8.4,6.9
	v4.3c0,0.4,0.3,0.7,0.7,0.7c0.4,0,0.7-0.3,0.7-0.7c0,0,0,0,0,0V605C276,604.6,275.6,604.3,275.3,604.3z"/>
<path class="st2" d="M314.2,545.7c-0.3,0-0.5,0-0.8,0c-35.2-0.4-63.6-27.9-63.6-61.8c0-18,7.7-46.7,18.7-69.9
	c7.9-16.7,24.4-44.7,45.6-44.7c8.7,0,17.6,4.8,26.2,14.2c0.4,0.5,0.9,0.9,1.3,1.4l0.1,0.2v154.6l-0.4,0.2c-0.4,0.2-0.9,0.4-1.3,0.6
	c-7.9,3.4-16.5,5.2-25.2,5.2C314.7,545.7,314.5,545.7,314.2,545.7z M314.2,370.5c-20.5,0-36.7,27.5-44.5,44
	c-11,23.1-18.6,51.6-18.6,69.4c0,33,28,60.2,62.3,60.6c0.3,0,0.5,0,0.7,0c0.2,0,0.5,0,0.7,0c8.5-0.1,16.9-1.8,24.7-5.1
	c0.3-0.1,0.6-0.3,0.9-0.4V385.6c-0.4-0.4-0.7-0.8-1.1-1.2C331.1,375.2,322.6,370.5,314.2,370.5z"/>
<path class="st4" d="M314.2,502.5c-0.2,0-0.4-0.1-0.6-0.2L277,461.7c-0.3-0.3-0.2-0.7,0.1-1c0.3-0.3,0.8-0.2,1,0.1l36.6,40.6
	c0.3,0.3,0.2,0.7-0.1,1C314.6,502.5,314.4,502.5,314.2,502.5z"/>
<path class="st4" d="M314.2,526c-0.4,0-0.7-0.3-0.7-0.7c0-0.2,0.1-0.4,0.2-0.5l20.8-20c0.3-0.3,0.7-0.3,1,0c0.3,0.3,0.3,0.7,0,1
	l-20.8,20C314.6,525.9,314.4,526,314.2,526z"/>
<path class="st2" d="M371.4,256.7l0.5,0.9c0.2,0.4,0.3,0.8,0.3,1.2v24h22.2v-24c0-0.4,0.1-0.9,0.3-1.2l0.5-0.9H371.4z M393.1,258.8
	v22.8h-19.6v-22.8c0-0.3,0-0.6-0.1-0.9h19.9C393.1,258.2,393.1,258.5,393.1,258.8L393.1,258.8z M399.3,256.7l0.5,0.9
	c0.2,0.4,0.3,0.8,0.3,1.2v24h22.2v-24c0-0.4,0.1-0.9,0.3-1.2l0.5-0.9H399.3z M421,258.8v22.8h-19.6v-22.8c0-0.3,0-0.6-0.1-0.9h19.9
	C421,258.2,421,258.5,421,258.8L421,258.8z M427.1,256.7l0.5,0.9c0.2,0.4,0.3,0.8,0.3,1.2v24h22.2v-24c0-0.4,0.1-0.9,0.3-1.2
	l0.5-0.9H427.1z M448.8,258.8v22.8h-19.6v-22.8c0-0.3,0-0.6-0.1-0.9h19.9C448.9,258.2,448.8,258.5,448.8,258.8L448.8,258.8z
	 M455,256.7l0.5,0.9c0.2,0.4,0.3,0.8,0.3,1.2v24h22.2v-24c0-0.4,0.1-0.9,0.3-1.2l0.5-0.9H455z M476.7,258.8v22.8h-19.6v-22.8
	c0-0.3,0-0.6-0.1-0.9h19.9C476.7,258.2,476.7,258.5,476.7,258.8z M482.9,256.7l0.5,0.9c0.2,0.4,0.3,0.8,0.3,1.2v24h22.2v-24
	c0-0.4,0.1-0.9,0.3-1.2l0.5-0.9H482.9z M504.5,258.8v22.8h-19.6v-22.8c0-0.3,0-0.6-0.1-0.9h19.9
	C504.6,258.2,504.5,258.5,504.5,258.8z M510.7,256.7l0.5,0.9c0.2,0.4,0.3,0.8,0.3,1.2v24h22.2v-24c0-0.4,0.1-0.9,0.3-1.2l0.5-0.9
	H510.7z M532.4,258.8v22.8h-19.6v-22.8c0-0.3,0-0.6-0.1-0.9h19.9C532.4,258.2,532.4,258.5,532.4,258.8z M538.6,256.7l0.5,0.9
	c0.2,0.4,0.3,0.8,0.3,1.2v24h22.2v-24c0-0.4,0.1-0.9,0.3-1.2l0.5-0.9H538.6z M560.3,258.8v22.8h-19.6v-22.8c0-0.3,0-0.6-0.1-0.9
	h19.9C560.3,258.2,560.3,258.5,560.3,258.8z M566.4,256.7l0.5,0.9c0.2,0.4,0.3,0.8,0.3,1.2v24h22.2v-24c0-0.4,0.1-0.9,0.3-1.2
	l0.5-0.9H566.4z M588.1,258.8v22.8h-19.6v-22.8c0-0.3,0-0.6-0.1-0.9h19.9C588.1,258.2,588.1,258.5,588.1,258.8z M594.3,256.7
	l0.5,0.9c0.2,0.4,0.3,0.8,0.3,1.2v24h22.2v-24c0-0.4,0.1-0.9,0.3-1.2l0.5-0.9H594.3z M616,258.8v22.8h-19.6v-22.8
	c0-0.3,0-0.6-0.1-0.9h19.9C616,258.2,616,258.5,616,258.8z M594.3,256.7l0.5,0.9c0.2,0.4,0.3,0.8,0.3,1.2v24h22.2v-24
	c0-0.4,0.1-0.9,0.3-1.2l0.5-0.9H594.3z M616,258.8v22.8h-19.6v-22.8c0-0.3,0-0.6-0.1-0.9h19.9C616,258.2,616,258.5,616,258.8z
	 M566.4,256.7l0.5,0.9c0.2,0.4,0.3,0.8,0.3,1.2v24h22.2v-24c0-0.4,0.1-0.9,0.3-1.2l0.5-0.9H566.4z M588.1,258.8v22.8h-19.6v-22.8
	c0-0.3,0-0.6-0.1-0.9h19.9C588.1,258.2,588.1,258.5,588.1,258.8z M538.6,256.7l0.5,0.9c0.2,0.4,0.3,0.8,0.3,1.2v24h22.2v-24
	c0-0.4,0.1-0.9,0.3-1.2l0.5-0.9H538.6z M560.3,258.8v22.8h-19.6v-22.8c0-0.3,0-0.6-0.1-0.9h19.9
	C560.3,258.2,560.3,258.5,560.3,258.8z M510.7,256.7l0.5,0.9c0.2,0.4,0.3,0.8,0.3,1.2v24h22.2v-24c0-0.4,0.1-0.9,0.3-1.2l0.5-0.9
	H510.7z M532.4,258.8v22.8h-19.6v-22.8c0-0.3,0-0.6-0.1-0.9h19.9C532.4,258.2,532.4,258.5,532.4,258.8z M482.9,256.7l0.5,0.9
	c0.2,0.4,0.3,0.8,0.3,1.2v24h22.2v-24c0-0.4,0.1-0.9,0.3-1.2l0.5-0.9H482.9z M504.5,258.8v22.8h-19.6v-22.8c0-0.3,0-0.6-0.1-0.9
	h19.9C504.6,258.2,504.5,258.5,504.5,258.8z M455,256.7l0.5,0.9c0.2,0.4,0.3,0.8,0.3,1.2v24h22.2v-24c0-0.4,0.1-0.9,0.3-1.2l0.5-0.9
	H455z M476.7,258.8v22.8h-19.6v-22.8c0-0.3,0-0.6-0.1-0.9h19.9C476.7,258.2,476.7,258.5,476.7,258.8z M427.1,256.7l0.5,0.9
	c0.2,0.4,0.3,0.8,0.3,1.2v24h22.2v-24c0-0.4,0.1-0.9,0.3-1.2l0.5-0.9H427.1z M448.8,258.8v22.8h-19.6v-22.8c0-0.3,0-0.6-0.1-0.9
	h19.9C448.9,258.2,448.8,258.5,448.8,258.8L448.8,258.8z M399.3,256.7l0.5,0.9c0.2,0.4,0.3,0.8,0.3,1.2v24h22.2v-24
	c0-0.4,0.1-0.9,0.3-1.2l0.5-0.9H399.3z M421,258.8v22.8h-19.6v-22.8c0-0.3,0-0.6-0.1-0.9h19.9C421,258.2,421,258.5,421,258.8
	L421,258.8z M371.4,256.7l0.5,0.9c0.2,0.4,0.3,0.8,0.3,1.2v24h22.2v-24c0-0.4,0.1-0.9,0.3-1.2l0.5-0.9H371.4z M393.1,258.8v22.8
	h-19.6v-22.8c0-0.3,0-0.6-0.1-0.9h19.9C393.1,258.2,393.1,258.5,393.1,258.8L393.1,258.8z M594.3,256.7l0.5,0.9
	c0.2,0.4,0.3,0.8,0.3,1.2v24h22.2v-24c0-0.4,0.1-0.9,0.3-1.2l0.5-0.9H594.3z M616,258.8v22.8h-19.6v-22.8c0-0.3,0-0.6-0.1-0.9h19.9
	C616,258.2,616,258.5,616,258.8z M566.4,256.7l0.5,0.9c0.2,0.4,0.3,0.8,0.3,1.2v24h22.2v-24c0-0.4,0.1-0.9,0.3-1.2l0.5-0.9H566.4z
	 M588.1,258.8v22.8h-19.6v-22.8c0-0.3,0-0.6-0.1-0.9h19.9C588.1,258.2,588.1,258.5,588.1,258.8z M538.6,256.7l0.5,0.9
	c0.2,0.4,0.3,0.8,0.3,1.2v24h22.2v-24c0-0.4,0.1-0.9,0.3-1.2l0.5-0.9H538.6z M560.3,258.8v22.8h-19.6v-22.8c0-0.3,0-0.6-0.1-0.9
	h19.9C560.3,258.2,560.3,258.5,560.3,258.8z M510.7,256.7l0.5,0.9c0.2,0.4,0.3,0.8,0.3,1.2v24h22.2v-24c0-0.4,0.1-0.9,0.3-1.2
	l0.5-0.9H510.7z M532.4,258.8v22.8h-19.6v-22.8c0-0.3,0-0.6-0.1-0.9h19.9C532.4,258.2,532.4,258.5,532.4,258.8z M482.9,256.7
	l0.5,0.9c0.2,0.4,0.3,0.8,0.3,1.2v24h22.2v-24c0-0.4,0.1-0.9,0.3-1.2l0.5-0.9H482.9z M504.5,258.8v22.8h-19.6v-22.8
	c0-0.3,0-0.6-0.1-0.9h19.9C504.6,258.2,504.5,258.5,504.5,258.8z M455,256.7l0.5,0.9c0.2,0.4,0.3,0.8,0.3,1.2v24h22.2v-24
	c0-0.4,0.1-0.9,0.3-1.2l0.5-0.9H455z M476.7,258.8v22.8h-19.6v-22.8c0-0.3,0-0.6-0.1-0.9h19.9C476.7,258.2,476.7,258.5,476.7,258.8z
	 M427.1,256.7l0.5,0.9c0.2,0.4,0.3,0.8,0.3,1.2v24h22.2v-24c0-0.4,0.1-0.9,0.3-1.2l0.5-0.9H427.1z M448.8,258.8v22.8h-19.6v-22.8
	c0-0.3,0-0.6-0.1-0.9h19.9C448.9,258.2,448.8,258.5,448.8,258.8L448.8,258.8z M399.3,256.7l0.5,0.9c0.2,0.4,0.3,0.8,0.3,1.2v24h22.2
	v-24c0-0.4,0.1-0.9,0.3-1.2l0.5-0.9H399.3z M421,258.8v22.8h-19.6v-22.8c0-0.3,0-0.6-0.1-0.9h19.9C421,258.2,421,258.5,421,258.8
	L421,258.8z M371.4,256.7l0.5,0.9c0.2,0.4,0.3,0.8,0.3,1.2v24h22.2v-24c0-0.4,0.1-0.9,0.3-1.2l0.5-0.9H371.4z M393.1,258.8v22.8
	h-19.6v-22.8c0-0.3,0-0.6-0.1-0.9h19.9C393.1,258.2,393.1,258.5,393.1,258.8L393.1,258.8z M594.3,256.7l0.5,0.9
	c0.2,0.4,0.3,0.8,0.3,1.2v24h22.2v-24c0-0.4,0.1-0.9,0.3-1.2l0.5-0.9H594.3z M616,258.8v22.8h-19.6v-22.8c0-0.3,0-0.6-0.1-0.9h19.9
	C616,258.2,616,258.5,616,258.8z M566.4,256.7l0.5,0.9c0.2,0.4,0.3,0.8,0.3,1.2v24h22.2v-24c0-0.4,0.1-0.9,0.3-1.2l0.5-0.9H566.4z
	 M588.1,258.8v22.8h-19.6v-22.8c0-0.3,0-0.6-0.1-0.9h19.9C588.1,258.2,588.1,258.5,588.1,258.8z M538.6,256.7l0.5,0.9
	c0.2,0.4,0.3,0.8,0.3,1.2v24h22.2v-24c0-0.4,0.1-0.9,0.3-1.2l0.5-0.9H538.6z M560.3,258.8v22.8h-19.6v-22.8c0-0.3,0-0.6-0.1-0.9
	h19.9C560.3,258.2,560.3,258.5,560.3,258.8z M510.7,256.7l0.5,0.9c0.2,0.4,0.3,0.8,0.3,1.2v24h22.2v-24c0-0.4,0.1-0.9,0.3-1.2
	l0.5-0.9H510.7z M532.4,258.8v22.8h-19.6v-22.8c0-0.3,0-0.6-0.1-0.9h19.9C532.4,258.2,532.4,258.5,532.4,258.8z M482.9,256.7
	l0.5,0.9c0.2,0.4,0.3,0.8,0.3,1.2v24h22.2v-24c0-0.4,0.1-0.9,0.3-1.2l0.5-0.9H482.9z M504.5,258.8v22.8h-19.6v-22.8
	c0-0.3,0-0.6-0.1-0.9h19.9C504.6,258.2,504.5,258.5,504.5,258.8z M455,256.7l0.5,0.9c0.2,0.4,0.3,0.8,0.3,1.2v24h22.2v-24
	c0-0.4,0.1-0.9,0.3-1.2l0.5-0.9H455z M476.7,258.8v22.8h-19.6v-22.8c0-0.3,0-0.6-0.1-0.9h19.9C476.7,258.2,476.7,258.5,476.7,258.8z
	 M427.1,256.7l0.5,0.9c0.2,0.4,0.3,0.8,0.3,1.2v24h22.2v-24c0-0.4,0.1-0.9,0.3-1.2l0.5-0.9H427.1z M448.8,258.8v22.8h-19.6v-22.8
	c0-0.3,0-0.6-0.1-0.9h19.9C448.9,258.2,448.8,258.5,448.8,258.8L448.8,258.8z M399.3,256.7l0.5,0.9c0.2,0.4,0.3,0.8,0.3,1.2v24h22.2
	v-24c0-0.4,0.1-0.9,0.3-1.2l0.5-0.9H399.3z M421,258.8v22.8h-19.6v-22.8c0-0.3,0-0.6-0.1-0.9h19.9C421,258.2,421,258.5,421,258.8
	L421,258.8z M371.4,256.7l0.5,0.9c0.2,0.4,0.3,0.8,0.3,1.2v24h22.2v-24c0-0.4,0.1-0.9,0.3-1.2l0.5-0.9H371.4z M393.1,258.8v22.8
	h-19.6v-22.8c0-0.3,0-0.6-0.1-0.9h19.9C393.1,258.2,393.1,258.5,393.1,258.8L393.1,258.8z M594.3,256.7l0.5,0.9
	c0.2,0.4,0.3,0.8,0.3,1.2v24h22.2v-24c0-0.4,0.1-0.9,0.3-1.2l0.5-0.9H594.3z M616,258.8v22.8h-19.6v-22.8c0-0.3,0-0.6-0.1-0.9h19.9
	C616,258.2,616,258.5,616,258.8z M566.4,256.7l0.5,0.9c0.2,0.4,0.3,0.8,0.3,1.2v24h22.2v-24c0-0.4,0.1-0.9,0.3-1.2l0.5-0.9H566.4z
	 M588.1,258.8v22.8h-19.6v-22.8c0-0.3,0-0.6-0.1-0.9h19.9C588.1,258.2,588.1,258.5,588.1,258.8z M538.6,256.7l0.5,0.9
	c0.2,0.4,0.3,0.8,0.3,1.2v24h22.2v-24c0-0.4,0.1-0.9,0.3-1.2l0.5-0.9H538.6z M560.3,258.8v22.8h-19.6v-22.8c0-0.3,0-0.6-0.1-0.9
	h19.9C560.3,258.2,560.3,258.5,560.3,258.8z M510.7,256.7l0.5,0.9c0.2,0.4,0.3,0.8,0.3,1.2v24h22.2v-24c0-0.4,0.1-0.9,0.3-1.2
	l0.5-0.9H510.7z M532.4,258.8v22.8h-19.6v-22.8c0-0.3,0-0.6-0.1-0.9h19.9C532.4,258.2,532.4,258.5,532.4,258.8z M482.9,256.7
	l0.5,0.9c0.2,0.4,0.3,0.8,0.3,1.2v24h22.2v-24c0-0.4,0.1-0.9,0.3-1.2l0.5-0.9H482.9z M504.5,258.8v22.8h-19.6v-22.8
	c0-0.3,0-0.6-0.1-0.9h19.9C504.6,258.2,504.5,258.5,504.5,258.8z M455,256.7l0.5,0.9c0.2,0.4,0.3,0.8,0.3,1.2v24h22.2v-24
	c0-0.4,0.1-0.9,0.3-1.2l0.5-0.9H455z M476.7,258.8v22.8h-19.6v-22.8c0-0.3,0-0.6-0.1-0.9h19.9C476.7,258.2,476.7,258.5,476.7,258.8z
	 M427.1,256.7l0.5,0.9c0.2,0.4,0.3,0.8,0.3,1.2v24h22.2v-24c0-0.4,0.1-0.9,0.3-1.2l0.5-0.9H427.1z M448.8,258.8v22.8h-19.6v-22.8
	c0-0.3,0-0.6-0.1-0.9h19.9C448.9,258.2,448.8,258.5,448.8,258.8L448.8,258.8z M399.3,256.7l0.5,0.9c0.2,0.4,0.3,0.8,0.3,1.2v24h22.2
	v-24c0-0.4,0.1-0.9,0.3-1.2l0.5-0.9H399.3z M421,258.8v22.8h-19.6v-22.8c0-0.3,0-0.6-0.1-0.9h19.9C421,258.2,421,258.5,421,258.8
	L421,258.8z M371.4,256.7l0.5,0.9c0.2,0.4,0.3,0.8,0.3,1.2v24h22.2v-24c0-0.4,0.1-0.9,0.3-1.2l0.5-0.9H371.4z M393.1,258.8v22.8
	h-19.6v-22.8c0-0.3,0-0.6-0.1-0.9h19.9C393.1,258.2,393.1,258.5,393.1,258.8L393.1,258.8z M594.3,256.7l0.5,0.9
	c0.2,0.4,0.3,0.8,0.3,1.2v24h22.2v-24c0-0.4,0.1-0.9,0.3-1.2l0.5-0.9H594.3z M616,258.8v22.8h-19.6v-22.8c0-0.3,0-0.6-0.1-0.9h19.9
	C616,258.2,616,258.5,616,258.8z M566.9,257.6c0.2,0.4,0.3,0.8,0.3,1.2v24h22.2v-24c0-0.4,0.1-0.9,0.3-1.2l0.5-0.9h-23.7
	L566.9,257.6z M588.2,257.9c-0.1,0.3-0.1,0.6-0.1,0.9v22.8h-19.6v-22.8c0-0.3,0-0.6-0.1-0.9H588.2z M539,257.6
	c0.2,0.4,0.3,0.8,0.3,1.2v24h22.2v-24c0-0.4,0.1-0.9,0.3-1.2l0.5-0.9h-23.7L539,257.6z M560.4,257.9c-0.1,0.3-0.1,0.6-0.1,0.9v22.8
	h-19.6v-22.8c0-0.3,0-0.6-0.1-0.9H560.4z M511.2,257.6c0.2,0.4,0.3,0.8,0.3,1.2v24h22.2v-24c0-0.4,0.1-0.9,0.3-1.2l0.5-0.9h-23.7
	L511.2,257.6z M532.5,257.9c-0.1,0.3-0.1,0.6-0.1,0.9v22.8h-19.6v-22.8c0-0.3,0-0.6-0.1-0.9H532.5z M483.3,257.6
	c0.2,0.4,0.3,0.8,0.3,1.2v24h22.2v-24c0-0.4,0.1-0.9,0.3-1.2l0.5-0.9h-23.7L483.3,257.6z M504.7,257.9c-0.1,0.3-0.1,0.6-0.1,0.9
	v22.8h-19.6v-22.8c0-0.3,0-0.6-0.1-0.9H504.7z M455.5,257.6c0.2,0.4,0.3,0.8,0.3,1.2v24h22.2v-24c0-0.4,0.1-0.9,0.3-1.2l0.5-0.9H455
	L455.5,257.6z M476.8,257.9c-0.1,0.3-0.1,0.6-0.1,0.9v22.8h-19.6v-22.8c0-0.3,0-0.6-0.1-0.9H476.8z M427.6,257.6
	c0.2,0.4,0.3,0.8,0.3,1.2v24h22.2v-24c0-0.4,0.1-0.9,0.3-1.2l0.5-0.9h-23.7L427.6,257.6z M448.9,257.9c-0.1,0.3-0.1,0.6-0.1,0.9
	v22.8h-19.6v-22.8c0-0.3,0-0.6-0.1-0.9H448.9z M399.8,257.6c0.2,0.4,0.3,0.8,0.3,1.2v24h22.2v-24c0-0.4,0.1-0.9,0.3-1.2l0.5-0.9
	h-23.7L399.8,257.6z M421.1,257.9c-0.1,0.3-0.1,0.6-0.1,0.9v22.8h-19.6v-22.8c0-0.3,0-0.6-0.1-0.9H421.1z M371.9,257.6
	c0.2,0.4,0.3,0.8,0.3,1.2v24h22.2v-24c0-0.4,0.1-0.9,0.3-1.2l0.5-0.9h-23.7L371.9,257.6z M393.2,257.9c-0.1,0.3-0.1,0.6-0.1,0.9
	v22.8h-19.6v-22.8c0-0.3,0-0.6-0.1-0.9H393.2z M594.8,257.6c0.2,0.4,0.3,0.8,0.3,1.2v24h22.2v-24c0-0.4,0.1-0.9,0.3-1.2l0.5-0.9
	h-23.7L594.8,257.6z M616.1,257.9c-0.1,0.3-0.1,0.6-0.1,0.9v22.8h-19.6v-22.8c0-0.3,0-0.6-0.1-0.9H616.1z M566.9,257.6
	c0.2,0.4,0.3,0.8,0.3,1.2v24h22.2v-24c0-0.4,0.1-0.9,0.3-1.2l0.5-0.9h-23.7L566.9,257.6z M588.2,257.9c-0.1,0.3-0.1,0.6-0.1,0.9
	v22.8h-19.6v-22.8c0-0.3,0-0.6-0.1-0.9H588.2z M539,257.6c0.2,0.4,0.3,0.8,0.3,1.2v24h22.2v-24c0-0.4,0.1-0.9,0.3-1.2l0.5-0.9h-23.7
	L539,257.6z M560.4,257.9c-0.1,0.3-0.1,0.6-0.1,0.9v22.8h-19.6v-22.8c0-0.3,0-0.6-0.1-0.9H560.4z M511.2,257.6
	c0.2,0.4,0.3,0.8,0.3,1.2v24h22.2v-24c0-0.4,0.1-0.9,0.3-1.2l0.5-0.9h-23.7L511.2,257.6z M532.5,257.9c-0.1,0.3-0.1,0.6-0.1,0.9
	v22.8h-19.6v-22.8c0-0.3,0-0.6-0.1-0.9H532.5z M483.3,257.6c0.2,0.4,0.3,0.8,0.3,1.2v24h22.2v-24c0-0.4,0.1-0.9,0.3-1.2l0.5-0.9
	h-23.7L483.3,257.6z M504.7,257.9c-0.1,0.3-0.1,0.6-0.1,0.9v22.8h-19.6v-22.8c0-0.3,0-0.6-0.1-0.9H504.7z M455.5,257.6
	c0.2,0.4,0.3,0.8,0.3,1.2v24h22.2v-24c0-0.4,0.1-0.9,0.3-1.2l0.5-0.9H455L455.5,257.6z M476.8,257.9c-0.1,0.3-0.1,0.6-0.1,0.9v22.8
	h-19.6v-22.8c0-0.3,0-0.6-0.1-0.9H476.8z M427.6,257.6c0.2,0.4,0.3,0.8,0.3,1.2v24h22.2v-24c0-0.4,0.1-0.9,0.3-1.2l0.5-0.9h-23.7
	L427.6,257.6z M448.9,257.9c-0.1,0.3-0.1,0.6-0.1,0.9v22.8h-19.6v-22.8c0-0.3,0-0.6-0.1-0.9H448.9z M399.8,257.6
	c0.2,0.4,0.3,0.8,0.3,1.2v24h22.2v-24c0-0.4,0.1-0.9,0.3-1.2l0.5-0.9h-23.7L399.8,257.6z M421.1,257.9c-0.1,0.3-0.1,0.6-0.1,0.9
	v22.8h-19.6v-22.8c0-0.3,0-0.6-0.1-0.9H421.1z M371.9,257.6c0.2,0.4,0.3,0.8,0.3,1.2v24h22.2v-24c0-0.4,0.1-0.9,0.3-1.2l0.5-0.9
	h-23.7L371.9,257.6z M393.2,257.9c-0.1,0.3-0.1,0.6-0.1,0.9v22.8h-19.6v-22.8c0-0.3,0-0.6-0.1-0.9H393.2z M642.6,286.5H635
	c-0.9-2.9-3.6-4.9-6.7-4.9h-4.1v-22.8c0-0.5-0.1-1-0.3-1.4c1.8-1,2.4-3.3,1.3-5c-0.7-1.1-1.9-1.8-3.3-1.8H367.5
	c-2.1,0-3.8,1.6-3.8,3.6c0,1.3,0.7,2.5,1.9,3.1c-0.2,0.5-0.3,0.9-0.3,1.4v22.8h-4.1c-3.1,0-5.8,2-6.7,4.9h-8.2
	c-3.1,0-5.7,2.5-5.7,5.5v321.4c0,3,2.6,5.5,5.7,5.5h296.3c3.1,0,5.7-2.5,5.7-5.5V292C648.3,289,645.7,286.5,642.6,286.5z M647,613.3
	c0,1.8-1.2,3.4-2.9,4c-0.5,0.2-1,0.3-1.5,0.3H346.3c-0.5,0-1-0.1-1.5-0.3c-1.7-0.6-2.9-2.2-2.9-4V292c0-2.4,2-4.3,4.4-4.3h9.2
	l0.1-0.5c0.5-2.5,2.9-4.4,5.6-4.4h5.4v-24c0-0.5,0.1-1,0.4-1.4l0.4-0.6l-0.7-0.3c-1.3-0.5-2-1.8-1.5-3.1c0.4-1,1.3-1.6,2.4-1.6H622
	c1.4,0,2.5,1.1,2.5,2.4c0,1-0.7,1.9-1.7,2.3l-0.7,0.3l0.4,0.6c0.3,0.4,0.4,0.9,0.4,1.4v24h5.4c2.7,0,5,1.8,5.6,4.4l0.1,0.5h8.6
	c2.4,0,4.4,1.9,4.4,4.3L647,613.3z M371.4,256.7l0.5,0.9c0.2,0.4,0.3,0.8,0.3,1.2v24h22.2v-24c0-0.4,0.1-0.9,0.3-1.2l0.5-0.9H371.4z
	 M393.1,258.8v22.8h-19.6v-22.8c0-0.3,0-0.6-0.1-0.9h19.9C393.1,258.2,393.1,258.5,393.1,258.8L393.1,258.8z M399.3,256.7l0.5,0.9
	c0.2,0.4,0.3,0.8,0.3,1.2v24h22.2v-24c0-0.4,0.1-0.9,0.3-1.2l0.5-0.9H399.3z M421,258.8v22.8h-19.6v-22.8c0-0.3,0-0.6-0.1-0.9h19.9
	C421,258.2,421,258.5,421,258.8L421,258.8z M427.1,256.7l0.5,0.9c0.2,0.4,0.3,0.8,0.3,1.2v24h22.2v-24c0-0.4,0.1-0.9,0.3-1.2
	l0.5-0.9H427.1z M448.8,258.8v22.8h-19.6v-22.8c0-0.3,0-0.6-0.1-0.9h19.9C448.9,258.2,448.8,258.5,448.8,258.8L448.8,258.8z
	 M455,256.7l0.5,0.9c0.2,0.4,0.3,0.8,0.3,1.2v24h22.2v-24c0-0.4,0.1-0.9,0.3-1.2l0.5-0.9H455z M476.7,258.8v22.8h-19.6v-22.8
	c0-0.3,0-0.6-0.1-0.9h19.9C476.7,258.2,476.7,258.5,476.7,258.8z M482.9,256.7l0.5,0.9c0.2,0.4,0.3,0.8,0.3,1.2v24h22.2v-24
	c0-0.4,0.1-0.9,0.3-1.2l0.5-0.9H482.9z M504.5,258.8v22.8h-19.6v-22.8c0-0.3,0-0.6-0.1-0.9h19.9
	C504.6,258.2,504.5,258.5,504.5,258.8z M510.7,256.7l0.5,0.9c0.2,0.4,0.3,0.8,0.3,1.2v24h22.2v-24c0-0.4,0.1-0.9,0.3-1.2l0.5-0.9
	H510.7z M532.4,258.8v22.8h-19.6v-22.8c0-0.3,0-0.6-0.1-0.9h19.9C532.4,258.2,532.4,258.5,532.4,258.8z M538.6,256.7l0.5,0.9
	c0.2,0.4,0.3,0.8,0.3,1.2v24h22.2v-24c0-0.4,0.1-0.9,0.3-1.2l0.5-0.9H538.6z M560.3,258.8v22.8h-19.6v-22.8c0-0.3,0-0.6-0.1-0.9
	h19.9C560.3,258.2,560.3,258.5,560.3,258.8z M566.4,256.7l0.5,0.9c0.2,0.4,0.3,0.8,0.3,1.2v24h22.2v-24c0-0.4,0.1-0.9,0.3-1.2
	l0.5-0.9H566.4z M588.1,258.8v22.8h-19.6v-22.8c0-0.3,0-0.6-0.1-0.9h19.9C588.1,258.2,588.1,258.5,588.1,258.8z M594.3,256.7
	l0.5,0.9c0.2,0.4,0.3,0.8,0.3,1.2v24h22.2v-24c0-0.4,0.1-0.9,0.3-1.2l0.5-0.9H594.3z M616,258.8v22.8h-19.6v-22.8
	c0-0.3,0-0.6-0.1-0.9h19.9C616,258.2,616,258.5,616,258.8z M371.4,256.7l0.5,0.9c0.2,0.4,0.3,0.8,0.3,1.2v24h22.2v-24
	c0-0.4,0.1-0.9,0.3-1.2l0.5-0.9H371.4z M393.1,258.8v22.8h-19.6v-22.8c0-0.3,0-0.6-0.1-0.9h19.9
	C393.1,258.2,393.1,258.5,393.1,258.8L393.1,258.8z M399.3,256.7l0.5,0.9c0.2,0.4,0.3,0.8,0.3,1.2v24h22.2v-24
	c0-0.4,0.1-0.9,0.3-1.2l0.5-0.9H399.3z M421,258.8v22.8h-19.6v-22.8c0-0.3,0-0.6-0.1-0.9h19.9C421,258.2,421,258.5,421,258.8
	L421,258.8z M427.1,256.7l0.5,0.9c0.2,0.4,0.3,0.8,0.3,1.2v24h22.2v-24c0-0.4,0.1-0.9,0.3-1.2l0.5-0.9H427.1z M448.8,258.8v22.8
	h-19.6v-22.8c0-0.3,0-0.6-0.1-0.9h19.9C448.9,258.2,448.8,258.5,448.8,258.8L448.8,258.8z M455,256.7l0.5,0.9
	c0.2,0.4,0.3,0.8,0.3,1.2v24h22.2v-24c0-0.4,0.1-0.9,0.3-1.2l0.5-0.9H455z M476.7,258.8v22.8h-19.6v-22.8c0-0.3,0-0.6-0.1-0.9h19.9
	C476.7,258.2,476.7,258.5,476.7,258.8z M482.9,256.7l0.5,0.9c0.2,0.4,0.3,0.8,0.3,1.2v24h22.2v-24c0-0.4,0.1-0.9,0.3-1.2l0.5-0.9
	H482.9z M504.5,258.8v22.8h-19.6v-22.8c0-0.3,0-0.6-0.1-0.9h19.9C504.6,258.2,504.5,258.5,504.5,258.8z M510.7,256.7l0.5,0.9
	c0.2,0.4,0.3,0.8,0.3,1.2v24h22.2v-24c0-0.4,0.1-0.9,0.3-1.2l0.5-0.9H510.7z M532.4,258.8v22.8h-19.6v-22.8c0-0.3,0-0.6-0.1-0.9
	h19.9C532.4,258.2,532.4,258.5,532.4,258.8z M538.6,256.7l0.5,0.9c0.2,0.4,0.3,0.8,0.3,1.2v24h22.2v-24c0-0.4,0.1-0.9,0.3-1.2
	l0.5-0.9H538.6z M560.3,258.8v22.8h-19.6v-22.8c0-0.3,0-0.6-0.1-0.9h19.9C560.3,258.2,560.3,258.5,560.3,258.8z M566.4,256.7
	l0.5,0.9c0.2,0.4,0.3,0.8,0.3,1.2v24h22.2v-24c0-0.4,0.1-0.9,0.3-1.2l0.5-0.9H566.4z M588.1,258.8v22.8h-19.6v-22.8
	c0-0.3,0-0.6-0.1-0.9h19.9C588.1,258.2,588.1,258.5,588.1,258.8z M594.3,256.7l0.5,0.9c0.2,0.4,0.3,0.8,0.3,1.2v24h22.2v-24
	c0-0.4,0.1-0.9,0.3-1.2l0.5-0.9H594.3z M616,258.8v22.8h-19.6v-22.8c0-0.3,0-0.6-0.1-0.9h19.9C616,258.2,616,258.5,616,258.8z
	 M371.4,256.7l0.5,0.9c0.2,0.4,0.3,0.8,0.3,1.2v24h22.2v-24c0-0.4,0.1-0.9,0.3-1.2l0.5-0.9H371.4z M393.1,258.8v22.8h-19.6v-22.8
	c0-0.3,0-0.6-0.1-0.9h19.9C393.1,258.2,393.1,258.5,393.1,258.8L393.1,258.8z M399.3,256.7l0.5,0.9c0.2,0.4,0.3,0.8,0.3,1.2v24h22.2
	v-24c0-0.4,0.1-0.9,0.3-1.2l0.5-0.9H399.3z M421,258.8v22.8h-19.6v-22.8c0-0.3,0-0.6-0.1-0.9h19.9C421,258.2,421,258.5,421,258.8
	L421,258.8z M427.1,256.7l0.5,0.9c0.2,0.4,0.3,0.8,0.3,1.2v24h22.2v-24c0-0.4,0.1-0.9,0.3-1.2l0.5-0.9H427.1z M448.8,258.8v22.8
	h-19.6v-22.8c0-0.3,0-0.6-0.1-0.9h19.9C448.9,258.2,448.8,258.5,448.8,258.8L448.8,258.8z M455,256.7l0.5,0.9
	c0.2,0.4,0.3,0.8,0.3,1.2v24h22.2v-24c0-0.4,0.1-0.9,0.3-1.2l0.5-0.9H455z M476.7,258.8v22.8h-19.6v-22.8c0-0.3,0-0.6-0.1-0.9h19.9
	C476.7,258.2,476.7,258.5,476.7,258.8z M482.9,256.7l0.5,0.9c0.2,0.4,0.3,0.8,0.3,1.2v24h22.2v-24c0-0.4,0.1-0.9,0.3-1.2l0.5-0.9
	H482.9z M504.5,258.8v22.8h-19.6v-22.8c0-0.3,0-0.6-0.1-0.9h19.9C504.6,258.2,504.5,258.5,504.5,258.8z M510.7,256.7l0.5,0.9
	c0.2,0.4,0.3,0.8,0.3,1.2v24h22.2v-24c0-0.4,0.1-0.9,0.3-1.2l0.5-0.9H510.7z M532.4,258.8v22.8h-19.6v-22.8c0-0.3,0-0.6-0.1-0.9
	h19.9C532.4,258.2,532.4,258.5,532.4,258.8z M538.6,256.7l0.5,0.9c0.2,0.4,0.3,0.8,0.3,1.2v24h22.2v-24c0-0.4,0.1-0.9,0.3-1.2
	l0.5-0.9H538.6z M560.3,258.8v22.8h-19.6v-22.8c0-0.3,0-0.6-0.1-0.9h19.9C560.3,258.2,560.3,258.5,560.3,258.8z M566.4,256.7
	l0.5,0.9c0.2,0.4,0.3,0.8,0.3,1.2v24h22.2v-24c0-0.4,0.1-0.9,0.3-1.2l0.5-0.9H566.4z M588.1,258.8v22.8h-19.6v-22.8
	c0-0.3,0-0.6-0.1-0.9h19.9C588.1,258.2,588.1,258.5,588.1,258.8z M594.3,256.7l0.5,0.9c0.2,0.4,0.3,0.8,0.3,1.2v24h22.2v-24
	c0-0.4,0.1-0.9,0.3-1.2l0.5-0.9H594.3z M616,258.8v22.8h-19.6v-22.8c0-0.3,0-0.6-0.1-0.9h19.9C616,258.2,616,258.5,616,258.8z
	 M371.4,256.7l0.5,0.9c0.2,0.4,0.3,0.8,0.3,1.2v24h22.2v-24c0-0.4,0.1-0.9,0.3-1.2l0.5-0.9H371.4z M393.1,258.8v22.8h-19.6v-22.8
	c0-0.3,0-0.6-0.1-0.9h19.9C393.1,258.2,393.1,258.5,393.1,258.8L393.1,258.8z M399.3,256.7l0.5,0.9c0.2,0.4,0.3,0.8,0.3,1.2v24h22.2
	v-24c0-0.4,0.1-0.9,0.3-1.2l0.5-0.9H399.3z M421,258.8v22.8h-19.6v-22.8c0-0.3,0-0.6-0.1-0.9h19.9C421,258.2,421,258.5,421,258.8
	L421,258.8z M427.1,256.7l0.5,0.9c0.2,0.4,0.3,0.8,0.3,1.2v24h22.2v-24c0-0.4,0.1-0.9,0.3-1.2l0.5-0.9H427.1z M448.8,258.8v22.8
	h-19.6v-22.8c0-0.3,0-0.6-0.1-0.9h19.9C448.9,258.2,448.8,258.5,448.8,258.8L448.8,258.8z M455,256.7l0.5,0.9
	c0.2,0.4,0.3,0.8,0.3,1.2v24h22.2v-24c0-0.4,0.1-0.9,0.3-1.2l0.5-0.9H455z M476.7,258.8v22.8h-19.6v-22.8c0-0.3,0-0.6-0.1-0.9h19.9
	C476.7,258.2,476.7,258.5,476.7,258.8z M482.9,256.7l0.5,0.9c0.2,0.4,0.3,0.8,0.3,1.2v24h22.2v-24c0-0.4,0.1-0.9,0.3-1.2l0.5-0.9
	H482.9z M504.5,258.8v22.8h-19.6v-22.8c0-0.3,0-0.6-0.1-0.9h19.9C504.6,258.2,504.5,258.5,504.5,258.8z M510.7,256.7l0.5,0.9
	c0.2,0.4,0.3,0.8,0.3,1.2v24h22.2v-24c0-0.4,0.1-0.9,0.3-1.2l0.5-0.9H510.7z M532.4,258.8v22.8h-19.6v-22.8c0-0.3,0-0.6-0.1-0.9
	h19.9C532.4,258.2,532.4,258.5,532.4,258.8z M538.6,256.7l0.5,0.9c0.2,0.4,0.3,0.8,0.3,1.2v24h22.2v-24c0-0.4,0.1-0.9,0.3-1.2
	l0.5-0.9H538.6z M560.3,258.8v22.8h-19.6v-22.8c0-0.3,0-0.6-0.1-0.9h19.9C560.3,258.2,560.3,258.5,560.3,258.8z M566.4,256.7
	l0.5,0.9c0.2,0.4,0.3,0.8,0.3,1.2v24h22.2v-24c0-0.4,0.1-0.9,0.3-1.2l0.5-0.9H566.4z M588.1,258.8v22.8h-19.6v-22.8
	c0-0.3,0-0.6-0.1-0.9h19.9C588.1,258.2,588.1,258.5,588.1,258.8z M594.3,256.7l0.5,0.9c0.2,0.4,0.3,0.8,0.3,1.2v24h22.2v-24
	c0-0.4,0.1-0.9,0.3-1.2l0.5-0.9H594.3z M616,258.8v22.8h-19.6v-22.8c0-0.3,0-0.6-0.1-0.9h19.9C616,258.2,616,258.5,616,258.8z"/>
<path class="st5" d="M446.7,363.2H400c-2,0-3.7-1.6-3.7-3.6v-23.9c0-2,1.7-3.6,3.7-3.6h46.7c2,0,3.7,1.6,3.7,3.6v23.9
	C450.4,361.6,448.8,363.2,446.7,363.2z"/>
<path class="st5" d="M517.8,363.2h-46.7c-2,0-3.7-1.6-3.7-3.6v-23.9c0-2,1.7-3.6,3.7-3.6h46.7c2,0,3.7,1.6,3.7,3.6v23.9
	C521.5,361.6,519.8,363.2,517.8,363.2z"/>
<path class="st5" d="M588.8,363.2h-46.7c-2,0-3.7-1.6-3.7-3.6v-23.9c0-2,1.7-3.6,3.7-3.6h46.7c2,0,3.7,1.6,3.7,3.6v23.9
	C592.5,361.6,590.8,363.2,588.8,363.2z"/>
<path class="st5" d="M446.7,442.9H400c-2,0-3.7-1.6-3.7-3.6v-23.9c0-2,1.7-3.6,3.7-3.6h46.7c2,0,3.7,1.6,3.7,3.6v23.9
	C450.4,441.3,448.8,442.9,446.7,442.9z"/>
<path class="st5" d="M517.8,442.9h-46.7c-2,0-3.7-1.6-3.7-3.6v-23.9c0-2,1.7-3.6,3.7-3.6h46.7c2,0,3.7,1.6,3.7,3.6v23.9
	C521.5,441.3,519.8,442.9,517.8,442.9z"/>
<path class="st5" d="M588.8,442.9h-46.7c-2,0-3.7-1.6-3.7-3.6v-23.9c0-2,1.7-3.6,3.7-3.6h46.7c2,0,3.7,1.6,3.7,3.6v23.9
	C592.5,441.3,590.8,442.9,588.8,442.9z"/>
<path class="st5" d="M446.7,522.7H400c-2,0-3.7-1.6-3.7-3.6v-23.9c0-2,1.7-3.6,3.7-3.6h46.7c2,0,3.7,1.6,3.7,3.6v23.9
	C450.4,521.1,448.8,522.7,446.7,522.7z"/>
<path class="st5" d="M517.8,522.7h-46.7c-2,0-3.7-1.6-3.7-3.6v-23.9c0-2,1.7-3.6,3.7-3.6h46.7c2,0,3.7,1.6,3.7,3.6v23.9
	C521.5,521.1,519.8,522.7,517.8,522.7z"/>
<path class="st5" d="M588.8,522.7h-46.7c-2,0-3.7-1.6-3.7-3.6v-23.9c0-2,1.7-3.6,3.7-3.6h46.7c2,0,3.7,1.6,3.7,3.6v23.9
	C592.5,521.1,590.8,522.7,588.8,522.7z"/>
<path class="st2" d="M439.1,366.3h-54.1c-2.7,0-4.9-2.1-4.9-4.7v-27.7c0-2.6,2.2-4.7,4.9-4.7h54.1c2.7,0,4.9,2.1,4.9,4.7v27.7
	C444.1,364.1,441.9,366.3,439.1,366.3z M385.1,330.3c-2,0-3.7,1.6-3.7,3.5v27.7c0,1.9,1.6,3.5,3.7,3.5h54.1c2,0,3.7-1.6,3.7-3.5
	v-27.7c0-1.9-1.6-3.5-3.7-3.5H385.1z"/>
<path class="st2" d="M521.5,366.3h-54.1c-2.7,0-4.9-2.1-4.9-4.7v-27.7c0-2.6,2.2-4.7,4.9-4.7h54.1c2.7,0,4.9,2.1,4.9,4.7v27.7
	C526.4,364.1,524.2,366.3,521.5,366.3z M467.4,330.3c-2,0-3.7,1.6-3.7,3.5v27.7c0,1.9,1.6,3.5,3.7,3.5h54.1c2,0,3.7-1.6,3.7-3.5
	v-27.7c0-1.9-1.6-3.5-3.7-3.5H467.4z"/>
<path class="st2" d="M603.8,366.3h-54.1c-2.7,0-4.9-2.1-4.9-4.7v-27.7c0-2.6,2.2-4.7,4.9-4.7h54.1c2.7,0,4.9,2.1,4.9,4.7v27.7
	C608.7,364.1,606.5,366.3,603.8,366.3z M549.7,330.3c-2,0-3.7,1.6-3.7,3.5v27.7c0,1.9,1.6,3.5,3.7,3.5h54.1c2,0,3.7-1.6,3.7-3.5
	v-27.7c0-1.9-1.6-3.5-3.7-3.5H549.7z"/>
<path class="st2" d="M439.1,446h-54.1c-2.7,0-4.9-2.1-4.9-4.7v-27.7c0-2.6,2.2-4.7,4.9-4.7h54.1c2.7,0,4.9,2.1,4.9,4.7v27.7
	C444.1,443.9,441.9,446,439.1,446z M385.1,410c-2,0-3.7,1.6-3.7,3.5v27.7c0,1.9,1.6,3.5,3.7,3.5h54.1c2,0,3.7-1.6,3.7-3.5v-27.7
	c0-1.9-1.6-3.5-3.7-3.5H385.1z"/>
<path class="st2" d="M521.5,446h-54.1c-2.7,0-4.9-2.1-4.9-4.7v-27.7c0-2.6,2.2-4.7,4.9-4.7h54.1c2.7,0,4.9,2.1,4.9,4.7v27.7
	C526.4,443.9,524.2,446,521.5,446z M467.4,410c-2,0-3.7,1.6-3.7,3.5v27.7c0,1.9,1.6,3.5,3.7,3.5h54.1c2,0,3.7-1.6,3.7-3.5v-27.7
	c0-1.9-1.6-3.5-3.7-3.5H467.4z"/>
<path class="st2" d="M603.8,446h-54.1c-2.7,0-4.9-2.1-4.9-4.7v-27.7c0-2.6,2.2-4.7,4.9-4.7h54.1c2.7,0,4.9,2.1,4.9,4.7v27.7
	C608.7,443.9,606.5,446,603.8,446z M549.7,410c-2,0-3.7,1.6-3.7,3.5v27.7c0,1.9,1.6,3.5,3.7,3.5h54.1c2,0,3.7-1.6,3.7-3.5v-27.7
	c0-1.9-1.6-3.5-3.7-3.5H549.7z"/>
<path class="st2" d="M439.1,525.7h-54.1c-2.7,0-4.9-2.1-4.9-4.7v-27.7c0-2.6,2.2-4.7,4.9-4.7h54.1c2.7,0,4.9,2.1,4.9,4.7V521
	C444.1,523.6,441.9,525.7,439.1,525.7z M385.1,489.8c-2,0-3.7,1.6-3.7,3.5V521c0,1.9,1.6,3.5,3.7,3.5h54.1c2,0,3.7-1.6,3.7-3.5
	v-27.7c0-1.9-1.6-3.5-3.7-3.5H385.1z"/>
<path class="st2" d="M521.5,525.7h-54.1c-2.7,0-4.9-2.1-4.9-4.7v-27.7c0-2.6,2.2-4.7,4.9-4.7h54.1c2.7,0,4.9,2.1,4.9,4.7V521
	C526.4,523.6,524.2,525.7,521.5,525.7z M467.4,489.8c-2,0-3.7,1.6-3.7,3.5V521c0,1.9,1.6,3.5,3.7,3.5h54.1c2,0,3.7-1.6,3.7-3.5
	v-27.7c0-1.9-1.6-3.5-3.7-3.5H467.4z"/>
<path class="st2" d="M603.8,525.7h-54.1c-2.7,0-4.9-2.1-4.9-4.7v-27.7c0-2.6,2.2-4.7,4.9-4.7h54.1c2.7,0,4.9,2.1,4.9,4.7V521
	C608.7,523.6,606.5,525.7,603.8,525.7z M549.7,489.8c-2,0-3.7,1.6-3.7,3.5V521c0,1.9,1.6,3.5,3.7,3.5h54.1c2,0,3.7-1.6,3.7-3.5
	v-27.7c0-1.9-1.6-3.5-3.7-3.5H549.7z"/>
<path class="st2" d="M824.1,619.7H185.9c-0.3,0-0.6-0.3-0.6-0.6c0-0.3,0.3-0.6,0.6-0.6h638.2c0.3,0,0.6,0.3,0.6,0.6
	C824.7,619.5,824.4,619.7,824.1,619.7z"/>
<path class="st2" d="M526.4,560.8c0-2.9-2.4-5.3-5.4-5.3h-26.6v63h32V560.8z"/>
<path class="st2" d="M495,617.9h-33.2V561c0-3.2,2.7-5.8,6-5.8H495V617.9z M463.1,616.7h30.7v-60.3h-26c-2.6,0-4.7,2-4.7,4.6V616.7z
	"/>
<ellipse class="st2" cx="465.9" cy="589" rx="1.9" ry="1.8"/>
<text transform="matrix(0.8972 0 0 1 33 720.1065)" class="st6 st7">SHOPPING</text>
<text transform="matrix(0.8972 0 0 1 568.3704 720.1065)" class="st6 st7">COMPLEX</text>
</svg>
