<svg xmlns="http://www.w3.org/2000/svg"  viewBox="0 0 64 64" width="100px" height="100px"><linearGradient id="w3u_J3974Yp_OyAbC61NSa" x1="27.789" x2="27.789" y1="8.25" y2="57.836" gradientUnits="userSpaceOnUse" spreadMethod="reflect"><stop offset="0" stop-color="#1a6dff"/><stop offset="1" stop-color="#c822ff"/></linearGradient><path fill="url(#w3u_J3974Yp_OyAbC61NSa)" d="M14.066,26.122l2.825,6.381l9.228-1.874l2.646,4.374l12.747-2.794l-7.788-9.457L14.066,26.122 z M29.735,32.743l-2.634-4.354l-9.032,1.835l-1.136-2.564l15.983-2.739l4.972,6.035L29.735,32.743z"/><linearGradient id="w3u_J3974Yp_OyAbC61NSb" x1="23.976" x2="23.976" y1="8.25" y2="57.836" gradientUnits="userSpaceOnUse" spreadMethod="reflect"><stop offset="0" stop-color="#1a6dff"/><stop offset="1" stop-color="#c822ff"/></linearGradient><path fill="url(#w3u_J3974Yp_OyAbC61NSb)" d="M16.313,38.779l2.243,7.414l13.081-3.146l-3.624-6.589L16.313,38.779z M19.924,43.807 l-1.058-3.494l8.101-1.607l1.655,3.011L19.924,43.807z"/><linearGradient id="w3u_J3974Yp_OyAbC61NSc" x1="33.045" x2="33.045" y1="17.92" y2="55.76" gradientUnits="userSpaceOnUse" spreadMethod="reflect"><stop offset="0" stop-color="#6dc7ff"/><stop offset="1" stop-color="#e6abff"/></linearGradient><path fill="url(#w3u_J3974Yp_OyAbC61NSc)" d="M38.91,24.71l-6.29-6.79L12.25,21l2.47,15.91l6.05,18.85l29.91-8.59l3.16-25.24L38.91,24.71z M18.56,46.19l-2.25-7.41l11.7-2.32l3.63,6.59L18.56,46.19z M28.76,35l-2.64-4.37l-9.23,1.87l-2.82-6.38l19.65-3.37l7.79,9.46 L28.76,35z"/><linearGradient id="w3u_J3974Yp_OyAbC61NSd" x1="32.46" x2="32.46" y1="8.25" y2="57.836" gradientUnits="userSpaceOnUse" spreadMethod="reflect"><stop offset="0" stop-color="#1a6dff"/><stop offset="1" stop-color="#c822ff"/></linearGradient><path fill="url(#w3u_J3974Yp_OyAbC61NSd)" d="M39.098,7.951L8.856,12.187l3.896,25.112l6.716,20.938l33.033-9.52l3.562-28.488L39.098,7.951 z M38.543,10.049l14.103,10.075l-13.033,2.405l-6.248-6.741L11.94,19.021l-0.797-5.136L38.543,10.049z M50.679,47.173l-29.906,8.59 l-6.056-18.849l-2.47-15.915l20.369-3.077l6.291,6.786l14.928-2.783L50.679,47.173z"/></svg>